<?xml version="1.0" standalone="no"?>
<!DOCTYPE svg PUBLIC "-//W3C//DTD SVG 20010904//EN"
 "http://www.w3.org/TR/2001/REC-SVG-20010904/DTD/svg10.dtd">
<svg version="1.0" xmlns="http://www.w3.org/2000/svg"
 width="420.000000pt" height="420.000000pt" viewBox="0 0 420.000000 420.000000"
 preserveAspectRatio="xMidYMid meet">

<g transform="translate(0.000000,420.000000) scale(0.100000,-0.100000)"
fill="#556b2f" stroke="none">
<path d="M255 4106 c-96 -30 -154 -79 -194 -166 l-26 -55 0 -1015 c0 -1109 0
-1100 60 -1340 26 -104 91 -282 131 -363 42 -85 147 -257 156 -257 4 0 8 -5 8
-11 0 -18 97 -136 190 -232 157 -164 327 -290 523 -388 315 -159 553 -209 995
-209 272 0 385 9 551 46 274 61 520 176 749 348 94 72 289 259 335 322 12 17
41 56 64 86 167 220 289 510 346 821 22 121 22 130 22 1162 l0 1040 -28 57
c-60 122 -199 189 -328 158 -54 -13 -142 -69 -429 -271 -74 -53 -171 -120
-216 -150 -44 -31 -94 -66 -111 -79 l-32 -23 -138 46 c-269 88 -475 120 -773
121 -312 0 -517 -32 -801 -125 l-125 -41 -300 208 c-416 290 -419 292 -476
309 -61 18 -99 18 -153 1z m1082 -1812 c186 -89 229 -367 82 -528 -143 -156
-373 -115 -468 84 -22 47 -26 68 -26 150 0 84 3 101 27 146 87 165 233 221
385 148z m1740 6 c124 -54 203 -221 173 -366 -45 -216 -243 -324 -420 -228
-99 54 -151 145 -158 274 -5 104 18 174 80 244 86 99 208 127 325 76z m-758
-658 c76 -30 111 -66 111 -114 0 -82 -72 -166 -189 -222 -56 -26 -77 -31 -141
-30 -64 0 -84 5 -138 33 -70 35 -146 100 -168 142 -8 16 -14 48 -14 72 0 52
23 81 87 109 70 31 120 37 263 34 108 -3 146 -7 189 -24z"/>
</g>
</svg>
