<?xml version="1.0" standalone="no"?>
<!DOCTYPE svg PUBLIC "-//W3C//DTD SVG 20010904//EN"
 "http://www.w3.org/TR/2001/REC-SVG-20010904/DTD/svg10.dtd">
<svg version="1.0" xmlns="http://www.w3.org/2000/svg"
 width="420.000000pt" height="420.000000pt" viewBox="0 0 420.000000 420.000000"
 preserveAspectRatio="xMidYMid meet">

<g transform="translate(0.000000,420.000000) scale(0.100000,-0.100000)"
fill="#556b2f" stroke="none">
<path d="M273 4110 c-91 -19 -174 -85 -212 -170 -20 -44 -21 -61 -21 -1070 0
-850 3 -1043 15 -1129 58 -409 237 -775 525 -1075 189 -197 442 -366 685 -460
39 -15 79 -31 90 -36 56 -23 256 -69 365 -82 128 -16 568 -21 693 -8 595 61
1115 379 1447 885 121 185 227 448 270 670 37 197 41 322 38 1310 -3 1032 1
961 -59 1051 -57 84 -180 134 -285 115 -71 -13 -115 -41 -452 -278 -75 -54
-167 -118 -203 -143 -36 -25 -85 -58 -108 -74 l-43 -30 -141 47 c-259 86 -483
120 -777 120 -294 0 -522 -36 -783 -123 -65 -22 -124 -40 -129 -40 -5 0 -105
66 -221 147 -551 383 -523 366 -612 376 -22 3 -59 1 -82 -3z m217 -428 c69
-48 215 -150 325 -227 110 -76 218 -152 241 -167 67 -47 129 -48 239 -3 484
196 1082 204 1555 21 214 -83 198 -87 490 117 128 89 276 191 329 227 53 36
113 77 132 93 20 15 39 27 42 27 12 0 8 -1836 -3 -1935 -24 -204 -69 -356
-165 -550 -187 -378 -530 -677 -932 -811 -196 -66 -266 -76 -582 -81 -190 -3
-316 -1 -380 7 -534 67 -1000 393 -1245 870 -102 199 -154 374 -175 594 -13
125 -16 1906 -3 1906 4 0 63 -40 132 -88z"/>
<path d="M1128 2310 c-106 -32 -191 -147 -204 -278 -26 -249 206 -434 413
-328 64 32 106 78 140 151 23 50 27 73 27 140 -1 141 -65 250 -176 303 -50 23
-144 29 -200 12z"/>
<path d="M2842 2294 c-59 -29 -101 -73 -139 -147 -25 -46 -28 -63 -28 -147 0
-83 3 -102 27 -151 57 -116 145 -173 263 -173 56 0 80 5 122 27 184 96 223
374 74 535 -76 82 -218 107 -319 56z"/>
<path d="M1943 1656 c-111 -26 -163 -67 -163 -129 0 -82 70 -164 190 -221 121
-57 243 -37 366 62 57 45 94 109 94 161 0 45 -49 91 -121 115 -74 24 -282 31
-366 12z"/>
</g>
</svg>
